<svg xmlns="http://www.w3.org/2000/svg" viewBox="0 0 18 18" fill="none">
    <path
        d="M17.1255 1.75327C17.2353 1.63537 17.2951 1.47943 17.2923 1.3183C17.2895 1.15717 17.2242 1.00344 17.1102 0.889487C16.9963 0.775534 16.8425 0.710261 16.6814 0.707418C16.5203 0.704575 16.3643 0.764385 16.2464 0.874246L14.578 2.54273C13.8991 2.06152 13.0719 1.83602 12.2428 1.90614C11.4136 1.97626 10.6361 2.33748 10.0477 2.92586L9.16201 3.81234C8.89007 4.08447 8.73732 4.45344 8.73732 4.83815C8.73732 5.22286 8.89007 5.59183 9.16201 5.86395L12.1349 8.83771C12.2697 8.97248 12.4297 9.07939 12.6058 9.15233C12.7818 9.22527 12.9706 9.26281 13.1612 9.26281C13.3517 9.26281 13.5405 9.22527 13.7165 9.15233C13.8926 9.07939 14.0526 8.97248 14.1874 8.83771L15.073 7.95205C15.6615 7.36377 16.0229 6.58623 16.0932 5.75709C16.1635 4.92795 15.9381 4.10069 15.457 3.42176L17.1255 1.75327ZM14.1525 3.80571L14.1708 3.82478L14.1733 3.82644L14.1749 3.82893L14.194 3.84717C14.4059 4.05895 14.574 4.3104 14.6886 4.58715C14.8033 4.8639 14.8623 5.16053 14.8623 5.4601C14.8623 5.75967 14.8033 6.0563 14.6886 6.33305C14.574 6.6098 14.4059 6.86125 14.194 7.07303L13.3083 7.95786C13.2891 7.97716 13.2662 7.99248 13.241 8.00293C13.2158 8.01338 13.1888 8.01876 13.1616 8.01876C13.1343 8.01876 13.1073 8.01338 13.0821 8.00293C13.0569 7.99248 13.034 7.97716 13.0148 7.95786L10.041 4.98493C10.0217 4.96567 10.0064 4.94279 9.99596 4.91761C9.98551 4.89242 9.98013 4.86542 9.98013 4.83815C9.98013 4.81088 9.98551 4.78388 9.99596 4.75869C10.0064 4.7335 10.0217 4.71063 10.041 4.69137L10.9267 3.80571C11.1385 3.59383 11.3899 3.42576 11.6667 3.31109C11.9434 3.19641 12.2401 3.13739 12.5396 3.13739C12.8392 3.13739 13.1358 3.19641 13.4126 3.31109C13.6893 3.42576 13.9408 3.59383 14.1525 3.80571ZM8.00352 8.38742C8.06463 8.33048 8.11364 8.26181 8.14763 8.18552C8.18163 8.10923 8.1999 8.02687 8.20138 7.94336C8.20285 7.85985 8.18749 7.7769 8.15621 7.69946C8.12493 7.62201 8.07837 7.55166 8.01931 7.4926C7.96025 7.43355 7.8899 7.38699 7.81246 7.35571C7.73501 7.32442 7.65206 7.30906 7.56855 7.31054C7.48504 7.31201 7.40268 7.33029 7.32639 7.36428C7.2501 7.39827 7.18144 7.44729 7.1245 7.50839L5.69815 8.93473L5.3084 8.54498C5.19178 8.42851 5.0337 8.36309 4.86889 8.36309C4.70407 8.36309 4.54599 8.42851 4.42937 8.54498L2.95742 10.0169C2.36892 10.6052 2.00755 11.3827 1.93727 12.2119C1.867 13.041 2.09237 13.8683 2.57347 14.5472L0.904984 16.2157C0.843878 16.2726 0.794867 16.3413 0.760873 16.4176C0.72688 16.4939 0.708601 16.5763 0.707128 16.6598C0.705655 16.7433 0.721016 16.8262 0.752297 16.9037C0.783578 16.9811 0.830137 17.0515 0.889196 17.1105C0.948256 17.1696 1.01861 17.2161 1.09605 17.2474C1.17349 17.2787 1.25644 17.2941 1.33995 17.2926C1.42346 17.2911 1.50582 17.2728 1.58211 17.2388C1.65841 17.2049 1.72707 17.1558 1.78401 17.0947L3.4525 15.4262C4.13143 15.9074 4.95869 16.1327 5.78783 16.0624C6.61697 15.9922 7.39451 15.6308 7.98279 15.0423L9.45474 13.5703C9.57121 13.4537 9.63663 13.2956 9.63663 13.1308C9.63663 12.966 9.57121 12.8079 9.45474 12.6913L9.06498 12.3016L10.4913 10.8752C10.5524 10.8183 10.6014 10.7496 10.6354 10.6733C10.6694 10.597 10.6877 10.5147 10.6892 10.4312C10.6907 10.3477 10.6753 10.2647 10.644 10.1873C10.6127 10.1098 10.5662 10.0395 10.5071 9.98041C10.4481 9.92135 10.3777 9.87479 10.3003 9.84351C10.2228 9.81223 10.1399 9.79687 10.0564 9.79834C9.97285 9.79981 9.89049 9.81809 9.8142 9.85209C9.7379 9.88608 9.66924 9.93509 9.6123 9.9962L8.18596 11.4225L6.57718 9.81376L8.00352 8.38742ZM5.25533 10.2508L5.25864 10.2533L5.26113 10.2566L7.74313 12.7386L7.74645 12.7411L7.74894 12.7444L8.13537 13.1308L7.10376 14.1633C6.89199 14.3751 6.64054 14.5432 6.36379 14.6579C6.08704 14.7726 5.79041 14.8316 5.49084 14.8316C5.19127 14.8316 4.89464 14.7726 4.61789 14.6579C4.34113 14.5432 4.08969 14.3751 3.87791 14.1633L3.83645 14.1218C3.62457 13.91 3.4565 13.6586 3.34182 13.3818C3.22715 13.1051 3.16813 12.8084 3.16813 12.5089C3.16813 12.2093 3.22715 11.9127 3.34182 11.6359C3.4565 11.3592 3.62457 11.1077 3.83645 10.896L4.86889 9.86517L5.25533 10.2508Z"
        fill="#838383" fill-opacity="0.58" />
</svg>